# xmcd
#
# Track frame offsets:
#	150
#	30254
#	56759
#	76874
#	95529
#	113361
#	133242
#	149918
#	171187
#	195653
#	214725
#	237708
#
# Disc length: 3460 seconds
#
# Revision: 0
# Processed by: cddbd v1.5.1PL2 Copyright (c) Steve Scherf et al.
# Submitted via: EasyCDDAExtractor 9.0.0.1
#
DISCID=ab0d820c
DTITLE=ANTHONY HAMILTON - SOULIFE
DYEAR=1900
DGENRE=
TTITLE0=I Used To Love Someone
TTITLE1=I Cry
TTITLE2=Clearly
TTITLE3=Georgie Parker
TTITLE4=Day Dreamin'
TTITLE5=Ball And Chain
TTITLE6=Ol' Keeper
TTITLE7=Love And War - (with Macy Gray)
TTITLE8=Last Night - (with Sunshine Anderson/Dolo Pichino)
TTITLE9=Love Is So Complicated
TTITLE10=Icing On The Cake
TTITLE11=Exclusively
EXTD=
EXTT0=
EXTT1=
EXTT2=
EXTT3=
EXTT4=
EXTT5=
EXTT6=
EXTT7=
EXTT8=
EXTT9=
EXTT10=
EXTT11=
PLAYORDER=
